<?xml version="1.0" encoding="UTF-8"?>
<svg id="Layer_1" data-name="Layer 1" xmlns="http://www.w3.org/2000/svg" version="1.1" xmlns:xlink="http://www.w3.org/1999/xlink" viewBox="0 0 1048.3 375.65">
  <defs>
    <style>
      .cls-1 {
        fill: url(#eJobsIT-7);
      }

      .cls-1, .cls-2, .cls-3, .cls-4, .cls-5, .cls-6, .cls-7, .cls-8, .cls-9, .cls-10, .cls-11, .cls-12, .cls-13, .cls-14, .cls-15, .cls-16, .cls-17, .cls-18, .cls-19, .cls-20, .cls-21, .cls-22, .cls-23, .cls-24, .cls-25, .cls-26, .cls-27 {
        stroke-width: 0px;
      }

      .cls-2 {
        fill: url(#eJobsIT-14);
      }

      .cls-3 {
        fill: url(#eJobsIT-11);
      }

      .cls-4 {
        fill: url(#eJobsIT-2);
      }

      .cls-5 {
        fill: #231f20;
      }

      .cls-6 {
        fill: url(#eJobsIT-12);
      }

      .cls-7 {
        fill: #414042;
      }

      .cls-8 {
        fill: url(#eJobsIT-4);
      }

      .cls-9 {
        fill: url(#eJobsIT-5);
      }

      .cls-10 {
        fill: url(#eJobsIT);
      }

      .cls-11 {
        fill: url(#eJobsIT-16);
      }

      .cls-12 {
        fill: url(#eJobsIT-15);
      }

      .cls-13 {
        fill: url(#New_Gradient_Swatch_1-3);
      }

      .cls-14 {
        fill: url(#New_Gradient_Swatch_1-8);
      }

      .cls-15 {
        fill: url(#New_Gradient_Swatch_1-6);
      }

      .cls-16 {
        fill: url(#New_Gradient_Swatch_1);
      }

      .cls-17 {
        fill: url(#New_Gradient_Swatch_1-9);
      }

      .cls-18 {
        fill: url(#eJobsIT-13);
      }

      .cls-19 {
        fill: url(#eJobsIT-6);
      }

      .cls-20 {
        fill: url(#New_Gradient_Swatch_1-2);
      }

      .cls-21 {
        fill: url(#eJobsIT-8);
      }

      .cls-22 {
        fill: url(#New_Gradient_Swatch_1-4);
      }

      .cls-23 {
        fill: url(#eJobsIT-3);
      }

      .cls-24 {
        fill: url(#eJobsIT-10);
      }

      .cls-25 {
        fill: url(#eJobsIT-9);
      }

      .cls-26 {
        fill: url(#New_Gradient_Swatch_1-5);
      }

      .cls-27 {
        fill: url(#New_Gradient_Swatch_1-7);
      }
    </style>
    <linearGradient id="New_Gradient_Swatch_1" data-name="New Gradient Swatch 1" x1="498.01" y1="138.62" x2="507.07" y2="138.95" gradientUnits="userSpaceOnUse">
      <stop offset="0" stop-color="#f47a20"/>
      <stop offset=".38" stop-color="#ee6d2e"/>
      <stop offset="1" stop-color="#e2534f"/>
    </linearGradient>
    <linearGradient id="eJobsIT" x1="390.38" y1="180.99" x2="611.52" y2="180.99" gradientUnits="userSpaceOnUse">
      <stop offset="0" stop-color="#2586c6"/>
      <stop offset=".33" stop-color="#2894c2"/>
      <stop offset=".97" stop-color="#33bbb8"/>
      <stop offset="1" stop-color="#34beb8"/>
    </linearGradient>
    <linearGradient id="eJobsIT-2" data-name="eJobsIT" x1="197.19" y1="152.31" x2="1030.45" y2="152.31" xlink:href="#eJobsIT"/>
    <linearGradient id="eJobsIT-3" data-name="eJobsIT" x1="197.19" y1="152.31" x2="1030.45" y2="152.31" xlink:href="#eJobsIT"/>
    <linearGradient id="eJobsIT-4" data-name="eJobsIT" x1="197.19" y1="152.31" x2="1030.45" y2="152.31" xlink:href="#eJobsIT"/>
    <linearGradient id="eJobsIT-5" data-name="eJobsIT" x1="583.5" y1="328.49" x2="630.45" y2="62.01" xlink:href="#eJobsIT"/>
    <linearGradient id="eJobsIT-6" data-name="eJobsIT" x1="583.5" y1="328.49" x2="630.45" y2="62.01" xlink:href="#eJobsIT"/>
    <linearGradient id="eJobsIT-7" data-name="eJobsIT" x1="583.5" y1="328.49" x2="630.45" y2="62.01" xlink:href="#eJobsIT"/>
    <linearGradient id="eJobsIT-8" data-name="eJobsIT" x1="583.5" y1="328.49" x2="630.45" y2="62.01" xlink:href="#eJobsIT"/>
    <linearGradient id="eJobsIT-9" data-name="eJobsIT" x1="583.5" y1="328.49" x2="630.45" y2="62.01" xlink:href="#eJobsIT"/>
    <linearGradient id="eJobsIT-10" data-name="eJobsIT" x1="583.5" y1="328.49" x2="630.45" y2="62.01" xlink:href="#eJobsIT"/>
    <linearGradient id="eJobsIT-11" data-name="eJobsIT" x1="583.5" y1="328.49" x2="630.45" y2="62.01" xlink:href="#eJobsIT"/>
    <linearGradient id="eJobsIT-12" data-name="eJobsIT" x1="583.5" y1="328.49" x2="630.45" y2="62.01" xlink:href="#eJobsIT"/>
    <linearGradient id="eJobsIT-13" data-name="eJobsIT" x1="583.5" y1="328.49" x2="630.45" y2="62.01" xlink:href="#eJobsIT"/>
    <linearGradient id="eJobsIT-14" data-name="eJobsIT" x1="583.5" y1="328.49" x2="630.45" y2="62.01" xlink:href="#eJobsIT"/>
    <linearGradient id="eJobsIT-15" data-name="eJobsIT" x1="583.5" y1="328.49" x2="630.45" y2="62.01" xlink:href="#eJobsIT"/>
    <linearGradient id="eJobsIT-16" data-name="eJobsIT" x1="583.5" y1="328.49" x2="630.45" y2="62.01" xlink:href="#eJobsIT"/>
    <linearGradient id="New_Gradient_Swatch_1-2" data-name="New Gradient Swatch 1" x1="185.2" y1="32.95" x2="-64.9" y2="195.62" gradientTransform="translate(62.39 14.37) rotate(-5.04)" xlink:href="#New_Gradient_Swatch_1"/>
    <linearGradient id="New_Gradient_Swatch_1-3" data-name="New Gradient Swatch 1" x1="166.12" y1="3.63" x2="-83.98" y2="166.29" gradientTransform="translate(62.39 14.37) rotate(-5.04)" xlink:href="#New_Gradient_Swatch_1"/>
    <linearGradient id="New_Gradient_Swatch_1-4" data-name="New Gradient Swatch 1" x1="184.57" y1="31.99" x2="-65.53" y2="194.65" gradientTransform="translate(62.39 14.37) rotate(-5.04)" xlink:href="#New_Gradient_Swatch_1"/>
    <linearGradient id="New_Gradient_Swatch_1-5" data-name="New Gradient Swatch 1" x1="219.2" y1="100.12" x2="508" y2="100.12" xlink:href="#New_Gradient_Swatch_1"/>
    <linearGradient id="New_Gradient_Swatch_1-6" data-name="New Gradient Swatch 1" x1="368.05" y1="-12.66" x2="47.57" y2="236.21" xlink:href="#New_Gradient_Swatch_1"/>
    <linearGradient id="New_Gradient_Swatch_1-7" data-name="New Gradient Swatch 1" x1="368.05" y1="-12.66" x2="47.57" y2="236.21" xlink:href="#New_Gradient_Swatch_1"/>
    <linearGradient id="New_Gradient_Swatch_1-8" data-name="New Gradient Swatch 1" x1="368.05" y1="-12.66" x2="47.57" y2="236.21" xlink:href="#New_Gradient_Swatch_1"/>
    <linearGradient id="New_Gradient_Swatch_1-9" data-name="New Gradient Swatch 1" x1="368.05" y1="-12.66" x2="47.57" y2="236.21" xlink:href="#New_Gradient_Swatch_1"/>
  </defs>
  <g>
    <path class="cls-16" d="M507.41,129.72l-.68,18.4c-.13,3.08-1.69,4.41-4.74,4.28-2.98-.13-4.39-1.66-4.3-4.74.09-3.04.22-6.07.33-9.11.11-3.03.2-6.07.34-9.1.14-2.94,1.69-4.36,4.57-4.29,3.07.09,4.56,1.52,4.48,4.56Z"/>
    <g>
      <g>
        <g>
          <path class="cls-5" d="M597.3,127.1c-9.48-15.46-22.58-27.62-39.29-36.48-16.71-8.85-35.67-13.28-56.87-13.28s-40.48,4.43-57.06,13.28c-16.59,8.86-29.69,21.08-39.29,36.67-9.61,15.59-14.41,33.49-14.41,53.69s4.8,37.73,14.41,53.32c9.6,15.59,22.7,27.88,39.29,36.86,16.58,8.98,35.6,13.47,57.06,13.47s40.16-4.49,56.87-13.47,29.81-21.27,39.29-36.86c9.48-15.59,14.22-33.36,14.22-53.32s-4.74-38.41-14.22-53.88ZM502.93,125.16c3.07.09,4.56,1.52,4.48,4.56l-.68,18.4c-.13,3.08-1.69,4.41-4.74,4.28-2.98-.13-4.39-1.66-4.3-4.74.09-3.04.22-6.07.33-9.11.11-3.03.2-6.07.34-9.1.14-2.94,1.69-4.36,4.57-4.29ZM450.96,132.89c7-20.67,25.81-35.27,47.58-36.81,1.43-.1,1.77.32,1.69,1.68-.2,3.1-.26,6.21-.37,9.31-.12,3.04-.26,6.08-.32,9.11-.02,1.01-.25,1.6-1.31,2.01-4.75,1.86-7.29,5.44-7.55,10.51-.32,6.46-.57,12.92-.7,19.39-.11,4.99,2.17,8.68,6.67,10.88.97.47,1.3.98,1.24,2.05-.24,4.79-.41,9.57-.53,14.36-.03,1.2-.4,1.54-1.6,1.42-17.21-1.77-32.89-7.54-46.96-17.66-.54-.38-.96-.73-.93-1.53.31-8.33.36-16.66,3.09-24.72ZM553.48,216.84c-1.77,24.53-21.41,45.06-45.74,48.51-30.39,4.31-58.22-17.21-61.53-47.63-.25-2.37-.33-4.78-.25-7.17.45-13.71.98-27.42,1.49-41.13.01-.44.03-.88.06-1.73,4.78,3,9.3,5.61,14.06,7.78,13.18,6,27,9.19,41.48,9.39,17.4.24,33.83-3.63,49.28-11.65.51-.26,1.05-.5,1.54-.81.97-.59,1.46-.62,1.4.79-.59,14.55-.75,29.13-1.79,43.65ZM555.7,161.41c-.02.83-.4,1.27-1.06,1.68-10.55,6.43-21.89,10.7-34.08,12.76-4.54.76-9.11,1.08-13.7,1.33-1.38.08-1.98-.16-1.83-1.74.23-2.31.21-4.65.3-6.98.09-2.39.24-4.79.23-7.18,0-1.1.43-1.54,1.41-1.93,4.34-1.72,7.03-4.93,7.34-9.6.45-6.98.71-13.97.78-20.95.05-4.77-2.44-8.2-6.72-10.25-.9-.43-1.2-.92-1.15-1.91.27-6.27.51-12.54.69-18.82.04-1.19.35-1.52,1.58-1.36,23.14,2.9,42.75,22.32,45.97,45.39.91,6.53.36,13.04.24,19.56Z"/>
          <path class="cls-10" d="M597.3,127.1c-9.48-15.46-22.58-27.62-39.29-36.48-16.71-8.85-35.67-13.28-56.87-13.28s-40.48,4.43-57.06,13.28c-16.59,8.86-29.69,21.08-39.29,36.67-9.61,15.59-14.41,33.49-14.41,53.69s4.8,37.73,14.41,53.32c9.6,15.59,22.7,27.88,39.29,36.86,16.58,8.98,35.6,13.47,57.06,13.47s40.16-4.49,56.87-13.47,29.81-21.27,39.29-36.86c9.48-15.59,14.22-33.36,14.22-53.32s-4.74-38.41-14.22-53.88ZM502.93,125.16c3.07.09,4.56,1.52,4.48,4.56l-.68,18.4c-.13,3.08-1.69,4.41-4.74,4.28-2.98-.13-4.39-1.66-4.3-4.74.09-3.04.22-6.07.33-9.11.11-3.03.2-6.07.34-9.1.14-2.94,1.69-4.36,4.57-4.29ZM450.96,132.89c7-20.67,25.81-35.27,47.58-36.81,1.43-.1,1.77.32,1.69,1.68-.2,3.1-.26,6.21-.37,9.31-.12,3.04-.26,6.08-.32,9.11-.02,1.01-.25,1.6-1.31,2.01-4.75,1.86-7.29,5.44-7.55,10.51-.32,6.46-.57,12.92-.7,19.39-.11,4.99,2.17,8.68,6.67,10.88.97.47,1.3.98,1.24,2.05-.24,4.79-.41,9.57-.53,14.36-.03,1.2-.4,1.54-1.6,1.42-17.21-1.77-32.89-7.54-46.96-17.66-.54-.38-.96-.73-.93-1.53.31-8.33.36-16.66,3.09-24.72ZM553.48,216.84c-1.77,24.53-21.41,45.06-45.74,48.51-30.39,4.31-58.22-17.21-61.53-47.63-.25-2.37-.33-4.78-.25-7.17.45-13.71.98-27.42,1.49-41.13.01-.44.03-.88.06-1.73,4.78,3,9.3,5.61,14.06,7.78,13.18,6,27,9.19,41.48,9.39,17.4.24,33.83-3.63,49.28-11.65.51-.26,1.05-.5,1.54-.81.97-.59,1.46-.62,1.4.79-.59,14.55-.75,29.13-1.79,43.65ZM555.7,161.41c-.02.83-.4,1.27-1.06,1.68-10.55,6.43-21.89,10.7-34.08,12.76-4.54.76-9.11,1.08-13.7,1.33-1.38.08-1.98-.16-1.83-1.74.23-2.31.21-4.65.3-6.98.09-2.39.24-4.79.23-7.18,0-1.1.43-1.54,1.41-1.93,4.34-1.72,7.03-4.93,7.34-9.6.45-6.98.71-13.97.78-20.95.05-4.77-2.44-8.2-6.72-10.25-.9-.43-1.2-.92-1.15-1.91.27-6.27.51-12.54.69-18.82.04-1.19.35-1.52,1.58-1.36,23.14,2.9,42.75,22.32,45.97,45.39.91,6.53.36,13.04.24,19.56Z"/>
        </g>
        <g>
          <g>
            <path class="cls-5" d="M313.83,174.03v18.53c0,29.08-12.41,43.62-37.23,43.62-9.28,0-17.93-2.44-25.95-7.33-6.79-4.14-11.31-7.94-17.56-15.4-1.81-2.15-5.13-2.12-6.93.03l-27.92,33.5c-1.4,1.69-1.4,4.15.02,5.83,9.15,10.85,18.57,17.33,32.27,23.43,14.91,6.64,31.27,9.96,49.08,9.96,31.09,0,54.66-8.02,70.7-24.07,16.05-16.04,24.07-40.36,24.07-72.96v-57.27c-19.11,18.95-39.33,35.44-60.55,42.13ZM369.86,18.42h-156.73c-3.69,0-5.83,4.17-3.69,7.17l28.52,39.83c.85,1.19,2.22,1.9,3.68,1.9h67.67c2.5,0,4.52,2.02,4.52,4.52v83.01c20.73-8.67,41.93-29.03,60.55-48.75V22.95c0-2.5-2.02-4.53-4.52-4.53Z"/>
            <path class="cls-5" d="M626.15,277.16V23.16c0-2.5,2.03-4.53,4.53-4.53h49.61c2.5,0,4.53,2.03,4.53,4.53v97.05c0,.09,0,.19,0,.28l-3.74,59.47c0,.12-.01.25,0,.37l1.13,59.99v36.84c0,2.5-2.03,4.53-4.53,4.53h-46.98c-2.5,0-4.53-2.03-4.53-4.53ZM745.75,284.7c-17.81,0-33.1-3.76-45.88-11.28-12.79-7.52-22.57-18.99-29.33-34.41s-10.15-34.91-10.15-58.48,3.57-43.38,10.72-58.67c7.15-15.29,17.11-26.7,29.9-34.22,12.79-7.52,27.7-11.28,44.75-11.28,19.05,0,36.16,4.27,51.34,12.79,15.17,8.53,27.2,20.56,36.11,36.11,8.9,15.55,13.35,33.98,13.35,55.29s-4.45,39.37-13.35,54.91c-8.9,15.55-20.94,27.64-36.11,36.29-15.17,8.65-32.29,12.98-51.34,12.98ZM735.59,236.56c9.78,0,18.49-2.26,26.14-6.77,7.64-4.51,13.79-10.96,18.43-19.37,4.64-8.4,6.96-18.36,6.96-29.9s-2.32-21.81-6.96-30.09c-4.64-8.27-10.78-14.67-18.43-19.18-7.65-4.51-16.36-6.77-26.14-6.77s-18.56,2.26-26.33,6.77c-7.77,4.51-13.92,10.91-18.43,19.18-4.51,8.27-6.77,18.3-6.77,30.09s2.26,21.5,6.77,29.9c4.51,8.4,10.65,14.86,18.43,19.37,7.77,4.51,16.55,6.77,26.33,6.77Z"/>
            <path class="cls-5" d="M934.92,284.7c-17.3,0-33.91-2.07-49.83-6.21-14.01-3.64-25.45-8.1-34.31-13.39-2-1.2-2.8-3.7-1.81-5.82l15.78-33.99c1.1-2.37,3.99-3.34,6.27-2.07,8.34,4.66,17.92,8.54,28.74,11.64,12.66,3.64,25.13,5.45,37.42,5.45,13.54,0,23.13-1.63,28.77-4.89,5.64-3.26,8.46-7.77,8.46-13.54,0-4.76-2.2-8.33-6.58-10.72-4.39-2.38-10.22-4.2-17.49-5.45-7.27-1.25-15.23-2.5-23.88-3.76-8.65-1.25-17.36-2.94-26.14-5.08-8.78-2.13-16.8-5.32-24.07-9.59-7.28-4.26-13.1-10.03-17.49-17.3-4.39-7.27-6.58-16.67-6.58-28.21,0-12.79,3.7-24.07,11.09-33.85,7.39-9.78,18.11-17.49,32.16-23.13,14.04-5.64,30.84-8.46,50.4-8.46,13.79,0,27.83,1.5,42.12,4.51,12.46,2.62,23.1,6.29,31.94,11.01,2.14,1.14,3.04,3.74,2.01,5.94l-15.72,33.55c-1.11,2.36-3.96,3.28-6.26,2.05-8.4-4.5-16.84-7.66-25.33-9.49-9.91-2.13-19.5-3.2-28.77-3.2-13.04,0-22.57,1.76-28.58,5.27-6.02,3.51-9.03,8.03-9.03,13.54,0,5.02,2.19,8.78,6.58,11.28,4.38,2.51,10.21,4.51,17.49,6.02,7.27,1.5,15.23,2.82,23.88,3.95,8.65,1.13,17.36,2.82,26.14,5.08,8.77,2.26,16.74,5.45,23.88,9.59,7.15,4.14,12.98,9.78,17.49,16.92s6.77,16.49,6.77,28.02c0,12.54-3.76,23.64-11.28,33.29-7.52,9.65-18.37,17.24-32.53,22.75-14.17,5.51-31.4,8.27-51.71,8.27Z"/>
          </g>
          <g>
            <path class="cls-4" d="M313.83,174.03v18.53c0,29.08-12.41,43.62-37.23,43.62-9.28,0-17.93-2.44-25.95-7.33-6.79-4.14-11.31-7.94-17.56-15.4-1.81-2.15-5.13-2.12-6.93.03l-27.92,33.5c-1.4,1.69-1.4,4.15.02,5.83,9.15,10.85,18.57,17.33,32.27,23.43,14.91,6.64,31.27,9.96,49.08,9.96,31.09,0,54.66-8.02,70.7-24.07,16.05-16.04,24.07-40.36,24.07-72.96v-57.27c-19.11,18.95-39.33,35.44-60.55,42.13ZM369.86,18.42h-156.73c-3.69,0-5.83,4.17-3.69,7.17l28.52,39.83c.85,1.19,2.22,1.9,3.68,1.9h67.67c2.5,0,4.52,2.02,4.52,4.52v83.01c20.73-8.67,41.93-29.03,60.55-48.75V22.95c0-2.5-2.02-4.53-4.52-4.53Z"/>
            <path class="cls-23" d="M626.15,277.16V23.16c0-2.5,2.03-4.53,4.53-4.53h49.61c2.5,0,4.53,2.03,4.53,4.53v97.05c0,.09,0,.19,0,.28l-3.74,59.47c0,.12-.01.25,0,.37l1.13,59.99v36.84c0,2.5-2.03,4.53-4.53,4.53h-46.98c-2.5,0-4.53-2.03-4.53-4.53ZM745.75,284.7c-17.81,0-33.1-3.76-45.88-11.28-12.79-7.52-22.57-18.99-29.33-34.41s-10.15-34.91-10.15-58.48,3.57-43.38,10.72-58.67c7.15-15.29,17.11-26.7,29.9-34.22,12.79-7.52,27.7-11.28,44.75-11.28,19.05,0,36.16,4.27,51.34,12.79,15.17,8.53,27.2,20.56,36.11,36.11,8.9,15.55,13.35,33.98,13.35,55.29s-4.45,39.37-13.35,54.91c-8.9,15.55-20.94,27.64-36.11,36.29-15.17,8.65-32.29,12.98-51.34,12.98ZM735.59,236.56c9.78,0,18.49-2.26,26.14-6.77,7.64-4.51,13.79-10.96,18.43-19.37,4.64-8.4,6.96-18.36,6.96-29.9s-2.32-21.81-6.96-30.09c-4.64-8.27-10.78-14.67-18.43-19.18-7.65-4.51-16.36-6.77-26.14-6.77s-18.56,2.26-26.33,6.77c-7.77,4.51-13.92,10.91-18.43,19.18-4.51,8.27-6.77,18.3-6.77,30.09s2.26,21.5,6.77,29.9c4.51,8.4,10.65,14.86,18.43,19.37,7.77,4.51,16.55,6.77,26.33,6.77Z"/>
            <path class="cls-8" d="M934.92,284.7c-17.3,0-33.91-2.07-49.83-6.21-14.01-3.64-25.45-8.1-34.31-13.39-2-1.2-2.8-3.7-1.81-5.82l15.78-33.99c1.1-2.37,3.99-3.34,6.27-2.07,8.34,4.66,17.92,8.54,28.74,11.64,12.66,3.64,25.13,5.45,37.42,5.45,13.54,0,23.13-1.63,28.77-4.89,5.64-3.26,8.46-7.77,8.46-13.54,0-4.76-2.2-8.33-6.58-10.72-4.39-2.38-10.22-4.2-17.49-5.45-7.27-1.25-15.23-2.5-23.88-3.76-8.65-1.25-17.36-2.94-26.14-5.08-8.78-2.13-16.8-5.32-24.07-9.59-7.28-4.26-13.1-10.03-17.49-17.3-4.39-7.27-6.58-16.67-6.58-28.21,0-12.79,3.7-24.07,11.09-33.85,7.39-9.78,18.11-17.49,32.16-23.13,14.04-5.64,30.84-8.46,50.4-8.46,13.79,0,27.83,1.5,42.12,4.51,12.46,2.62,23.1,6.29,31.94,11.01,2.14,1.14,3.04,3.74,2.01,5.94l-15.72,33.55c-1.11,2.36-3.96,3.28-6.26,2.05-8.4-4.5-16.84-7.66-25.33-9.49-9.91-2.13-19.5-3.2-28.77-3.2-13.04,0-22.57,1.76-28.58,5.27-6.02,3.51-9.03,8.03-9.03,13.54,0,5.02,2.19,8.78,6.58,11.28,4.38,2.51,10.21,4.51,17.49,6.02,7.27,1.5,15.23,2.82,23.88,3.95,8.65,1.13,17.36,2.82,26.14,5.08,8.77,2.26,16.74,5.45,23.88,9.59,7.15,4.14,12.98,9.78,17.49,16.92s6.77,16.49,6.77,28.02c0,12.54-3.76,23.64-11.28,33.29-7.52,9.65-18.37,17.24-32.53,22.75-14.17,5.51-31.4,8.27-51.71,8.27Z"/>
          </g>
        </g>
      </g>
      <g>
        <g>
          <path class="cls-9" d="M597.3,127.1c-9.48-15.46-22.58-27.62-39.29-36.48-16.71-8.85-35.67-13.28-56.87-13.28s-40.48,4.43-57.06,13.28c-16.59,8.86-29.69,21.08-39.29,36.67-9.61,15.59-14.41,33.49-14.41,53.69s4.8,37.73,14.41,53.32c9.6,15.59,22.7,27.88,39.29,36.86,16.58,8.98,35.6,13.47,57.06,13.47s40.16-4.49,56.87-13.47,29.81-21.27,39.29-36.86c9.48-15.59,14.22-33.36,14.22-53.32s-4.74-38.41-14.22-53.88ZM502.93,125.16c3.07.09,4.56,1.52,4.48,4.56l-.68,18.4c-.13,3.08-1.69,4.41-4.74,4.28-2.98-.13-4.39-1.66-4.3-4.74.09-3.04.22-6.07.33-9.11.11-3.03.2-6.07.34-9.1.14-2.94,1.69-4.36,4.57-4.29ZM450.96,132.89c7-20.67,25.81-35.27,47.58-36.81,1.43-.1,1.77.32,1.69,1.68-.2,3.1-.26,6.21-.37,9.31-.12,3.04-.26,6.08-.32,9.11-.02,1.01-.25,1.6-1.31,2.01-4.75,1.86-7.29,5.44-7.55,10.51-.32,6.46-.57,12.92-.7,19.39-.11,4.99,2.17,8.68,6.67,10.88.97.47,1.3.98,1.24,2.05-.24,4.79-.41,9.57-.53,14.36-.03,1.2-.4,1.54-1.6,1.42-17.21-1.77-32.89-7.54-46.96-17.66-.54-.38-.96-.73-.93-1.53.31-8.33.36-16.66,3.09-24.72ZM553.48,216.84c-1.77,24.53-21.41,45.06-45.74,48.51-30.39,4.31-58.22-17.21-61.53-47.63-.25-2.37-.33-4.78-.25-7.17.45-13.71.98-27.42,1.49-41.13.01-.44.03-.88.06-1.73,4.78,3,9.3,5.61,14.06,7.78,13.18,6,27,9.19,41.48,9.39,17.4.24,33.83-3.63,49.28-11.65.51-.26,1.05-.5,1.54-.81.97-.59,1.46-.62,1.4.79-.59,14.55-.75,29.13-1.79,43.65ZM555.7,161.41c-.02.83-.4,1.27-1.06,1.68-10.55,6.43-21.89,10.7-34.08,12.76-4.54.76-9.11,1.08-13.7,1.33-1.38.08-1.98-.16-1.83-1.74.23-2.31.21-4.65.3-6.98.09-2.39.24-4.79.23-7.18,0-1.1.43-1.54,1.41-1.93,4.34-1.72,7.03-4.93,7.34-9.6.45-6.98.71-13.97.78-20.95.05-4.77-2.44-8.2-6.72-10.25-.9-.43-1.2-.92-1.15-1.91.27-6.27.51-12.54.69-18.82.04-1.19.35-1.52,1.58-1.36,23.14,2.9,42.75,22.32,45.97,45.39.91,6.53.36,13.04.24,19.56Z"/>
          <path class="cls-19" d="M597.3,127.1c-9.48-15.46-22.58-27.62-39.29-36.48-16.71-8.85-35.67-13.28-56.87-13.28s-40.48,4.43-57.06,13.28c-16.59,8.86-29.69,21.08-39.29,36.67-9.61,15.59-14.41,33.49-14.41,53.69s4.8,37.73,14.41,53.32c9.6,15.59,22.7,27.88,39.29,36.86,16.58,8.98,35.6,13.47,57.06,13.47s40.16-4.49,56.87-13.47,29.81-21.27,39.29-36.86c9.48-15.59,14.22-33.36,14.22-53.32s-4.74-38.41-14.22-53.88ZM502.93,125.16c3.07.09,4.56,1.52,4.48,4.56l-.68,18.4c-.13,3.08-1.69,4.41-4.74,4.28-2.98-.13-4.39-1.66-4.3-4.74.09-3.04.22-6.07.33-9.11.11-3.03.2-6.07.34-9.1.14-2.94,1.69-4.36,4.57-4.29ZM450.96,132.89c7-20.67,25.81-35.27,47.58-36.81,1.43-.1,1.77.32,1.69,1.68-.2,3.1-.26,6.21-.37,9.31-.12,3.04-.26,6.08-.32,9.11-.02,1.01-.25,1.6-1.31,2.01-4.75,1.86-7.29,5.44-7.55,10.51-.32,6.46-.57,12.92-.7,19.39-.11,4.99,2.17,8.68,6.67,10.88.97.47,1.3.98,1.24,2.05-.24,4.79-.41,9.57-.53,14.36-.03,1.2-.4,1.54-1.6,1.42-17.21-1.77-32.89-7.54-46.96-17.66-.54-.38-.96-.73-.93-1.53.31-8.33.36-16.66,3.09-24.72ZM553.48,216.84c-1.77,24.53-21.41,45.06-45.74,48.51-30.39,4.31-58.22-17.21-61.53-47.63-.25-2.37-.33-4.78-.25-7.17.45-13.71.98-27.42,1.49-41.13.01-.44.03-.88.06-1.73,4.78,3,9.3,5.61,14.06,7.78,13.18,6,27,9.19,41.48,9.39,17.4.24,33.83-3.63,49.28-11.65.51-.26,1.05-.5,1.54-.81.97-.59,1.46-.62,1.4.79-.59,14.55-.75,29.13-1.79,43.65ZM555.7,161.41c-.02.83-.4,1.27-1.06,1.68-10.55,6.43-21.89,10.7-34.08,12.76-4.54.76-9.11,1.08-13.7,1.33-1.38.08-1.98-.16-1.83-1.74.23-2.31.21-4.65.3-6.98.09-2.39.24-4.79.23-7.18,0-1.1.43-1.54,1.41-1.93,4.34-1.72,7.03-4.93,7.34-9.6.45-6.98.71-13.97.78-20.95.05-4.77-2.44-8.2-6.72-10.25-.9-.43-1.2-.92-1.15-1.91.27-6.27.51-12.54.69-18.82.04-1.19.35-1.52,1.58-1.36,23.14,2.9,42.75,22.32,45.97,45.39.91,6.53.36,13.04.24,19.56Z"/>
          <path class="cls-1" d="M597.3,127.1c-9.48-15.46-22.58-27.62-39.29-36.48-16.71-8.85-35.67-13.28-56.87-13.28s-40.48,4.43-57.06,13.28c-16.59,8.86-29.69,21.08-39.29,36.67-9.61,15.59-14.41,33.49-14.41,53.69s4.8,37.73,14.41,53.32c9.6,15.59,22.7,27.88,39.29,36.86,16.58,8.98,35.6,13.47,57.06,13.47s40.16-4.49,56.87-13.47,29.81-21.27,39.29-36.86c9.48-15.59,14.22-33.36,14.22-53.32s-4.74-38.41-14.22-53.88ZM502.93,125.16c3.07.09,4.56,1.52,4.48,4.56l-.68,18.4c-.13,3.08-1.69,4.41-4.74,4.28-2.98-.13-4.39-1.66-4.3-4.74.09-3.04.22-6.07.33-9.11.11-3.03.2-6.07.34-9.1.14-2.94,1.69-4.36,4.57-4.29ZM450.96,132.89c7-20.67,25.81-35.27,47.58-36.81,1.43-.1,1.77.32,1.69,1.68-.2,3.1-.26,6.21-.37,9.31-.12,3.04-.26,6.08-.32,9.11-.02,1.01-.25,1.6-1.31,2.01-4.75,1.86-7.29,5.44-7.55,10.51-.32,6.46-.57,12.92-.7,19.39-.11,4.99,2.17,8.68,6.67,10.88.97.47,1.3.98,1.24,2.05-.24,4.79-.41,9.57-.53,14.36-.03,1.2-.4,1.54-1.6,1.42-17.21-1.77-32.89-7.54-46.96-17.66-.54-.38-.96-.73-.93-1.53.31-8.33.36-16.66,3.09-24.72ZM553.48,216.84c-1.77,24.53-21.41,45.06-45.74,48.51-30.39,4.31-58.22-17.21-61.53-47.63-.25-2.37-.33-4.78-.25-7.17.45-13.71.98-27.42,1.49-41.13.01-.44.03-.88.06-1.73,4.78,3,9.3,5.61,14.06,7.78,13.18,6,27,9.19,41.48,9.39,17.4.24,33.83-3.63,49.28-11.65.51-.26,1.05-.5,1.54-.81.97-.59,1.46-.62,1.4.79-.59,14.55-.75,29.13-1.79,43.65ZM555.7,161.41c-.02.83-.4,1.27-1.06,1.68-10.55,6.43-21.89,10.7-34.08,12.76-4.54.76-9.11,1.08-13.7,1.33-1.38.08-1.98-.16-1.83-1.74.23-2.31.21-4.65.3-6.98.09-2.39.24-4.79.23-7.18,0-1.1.43-1.54,1.41-1.93,4.34-1.72,7.03-4.93,7.34-9.6.45-6.98.71-13.97.78-20.95.05-4.77-2.44-8.2-6.72-10.25-.9-.43-1.2-.92-1.15-1.91.27-6.27.51-12.54.69-18.82.04-1.19.35-1.52,1.58-1.36,23.14,2.9,42.75,22.32,45.97,45.39.91,6.53.36,13.04.24,19.56Z"/>
        </g>
        <g>
          <g>
            <path class="cls-21" d="M313.83,174.03v18.53c0,29.08-12.41,43.62-37.23,43.62-9.28,0-17.93-2.44-25.95-7.33-6.79-4.14-11.31-7.94-17.56-15.4-1.81-2.15-5.13-2.12-6.93.03l-27.92,33.5c-1.4,1.69-1.4,4.15.02,5.83,9.15,10.85,18.57,17.33,32.27,23.43,14.91,6.64,31.27,9.96,49.08,9.96,31.09,0,54.66-8.02,70.7-24.07,16.05-16.04,24.07-40.36,24.07-72.96v-57.27c-19.11,18.95-39.33,35.44-60.55,42.13ZM369.86,18.42h-156.73c-3.69,0-5.83,4.17-3.69,7.17l28.52,39.83c.85,1.19,2.22,1.9,3.68,1.9h67.67c2.5,0,4.52,2.02,4.52,4.52v83.01c20.73-8.67,41.93-29.03,60.55-48.75V22.95c0-2.5-2.02-4.53-4.52-4.53Z"/>
            <path class="cls-25" d="M626.15,277.16V23.16c0-2.5,2.03-4.53,4.53-4.53h49.61c2.5,0,4.53,2.03,4.53,4.53v97.05c0,.09,0,.19,0,.28l-3.74,59.47c0,.12-.01.25,0,.37l1.13,59.99v36.84c0,2.5-2.03,4.53-4.53,4.53h-46.98c-2.5,0-4.53-2.03-4.53-4.53ZM745.75,284.7c-17.81,0-33.1-3.76-45.88-11.28-12.79-7.52-22.57-18.99-29.33-34.41s-10.15-34.91-10.15-58.48,3.57-43.38,10.72-58.67c7.15-15.29,17.11-26.7,29.9-34.22,12.79-7.52,27.7-11.28,44.75-11.28,19.05,0,36.16,4.27,51.34,12.79,15.17,8.53,27.2,20.56,36.11,36.11,8.9,15.55,13.35,33.98,13.35,55.29s-4.45,39.37-13.35,54.91c-8.9,15.55-20.94,27.64-36.11,36.29-15.17,8.65-32.29,12.98-51.34,12.98ZM735.59,236.56c9.78,0,18.49-2.26,26.14-6.77,7.64-4.51,13.79-10.96,18.43-19.37,4.64-8.4,6.96-18.36,6.96-29.9s-2.32-21.81-6.96-30.09c-4.64-8.27-10.78-14.67-18.43-19.18-7.65-4.51-16.36-6.77-26.14-6.77s-18.56,2.26-26.33,6.77c-7.77,4.51-13.92,10.91-18.43,19.18-4.51,8.27-6.77,18.3-6.77,30.09s2.26,21.5,6.77,29.9c4.51,8.4,10.65,14.86,18.43,19.37,7.77,4.51,16.55,6.77,26.33,6.77Z"/>
            <path class="cls-24" d="M934.92,284.7c-17.3,0-33.91-2.07-49.83-6.21-14.01-3.64-25.45-8.1-34.31-13.39-2-1.2-2.8-3.7-1.81-5.82l15.78-33.99c1.1-2.37,3.99-3.34,6.27-2.07,8.34,4.66,17.92,8.54,28.74,11.64,12.66,3.64,25.13,5.45,37.42,5.45,13.54,0,23.13-1.63,28.77-4.89,5.64-3.26,8.46-7.77,8.46-13.54,0-4.76-2.2-8.33-6.58-10.72-4.39-2.38-10.22-4.2-17.49-5.45-7.27-1.25-15.23-2.5-23.88-3.76-8.65-1.25-17.36-2.94-26.14-5.08-8.78-2.13-16.8-5.32-24.07-9.59-7.28-4.26-13.1-10.03-17.49-17.3-4.39-7.27-6.58-16.67-6.58-28.21,0-12.79,3.7-24.07,11.09-33.85,7.39-9.78,18.11-17.49,32.16-23.13,14.04-5.64,30.84-8.46,50.4-8.46,13.79,0,27.83,1.5,42.12,4.51,12.46,2.62,23.1,6.29,31.94,11.01,2.14,1.14,3.04,3.74,2.01,5.94l-15.72,33.55c-1.11,2.36-3.96,3.28-6.26,2.05-8.4-4.5-16.84-7.66-25.33-9.49-9.91-2.13-19.5-3.2-28.77-3.2-13.04,0-22.57,1.76-28.58,5.27-6.02,3.51-9.03,8.03-9.03,13.54,0,5.02,2.19,8.78,6.58,11.28,4.38,2.51,10.21,4.51,17.49,6.02,7.27,1.5,15.23,2.82,23.88,3.95,8.65,1.13,17.36,2.82,26.14,5.08,8.77,2.26,16.74,5.45,23.88,9.59,7.15,4.14,12.98,9.78,17.49,16.92s6.77,16.49,6.77,28.02c0,12.54-3.76,23.64-11.28,33.29-7.52,9.65-18.37,17.24-32.53,22.75-14.17,5.51-31.4,8.27-51.71,8.27Z"/>
          </g>
          <g>
            <path class="cls-3" d="M313.83,174.03v18.53c0,29.08-12.41,43.62-37.23,43.62-9.28,0-17.93-2.44-25.95-7.33-6.79-4.14-11.31-7.94-17.56-15.4-1.81-2.15-5.13-2.12-6.93.03l-27.92,33.5c-1.4,1.69-1.4,4.15.02,5.83,9.15,10.85,18.57,17.33,32.27,23.43,14.91,6.64,31.27,9.96,49.08,9.96,31.09,0,54.66-8.02,70.7-24.07,16.05-16.04,24.07-40.36,24.07-72.96v-57.27c-19.11,18.95-39.33,35.44-60.55,42.13ZM369.86,18.42h-156.73c-3.69,0-5.83,4.17-3.69,7.17l28.52,39.83c.85,1.19,2.22,1.9,3.68,1.9h67.67c2.5,0,4.52,2.02,4.52,4.52v83.01c20.73-8.67,41.93-29.03,60.55-48.75V22.95c0-2.5-2.02-4.53-4.52-4.53Z"/>
            <path class="cls-6" d="M626.15,277.16V23.16c0-2.5,2.03-4.53,4.53-4.53h49.61c2.5,0,4.53,2.03,4.53,4.53v97.05c0,.09,0,.19,0,.28l-3.74,59.47c0,.12-.01.25,0,.37l1.13,59.99v36.84c0,2.5-2.03,4.53-4.53,4.53h-46.98c-2.5,0-4.53-2.03-4.53-4.53ZM745.75,284.7c-17.81,0-33.1-3.76-45.88-11.28-12.79-7.52-22.57-18.99-29.33-34.41s-10.15-34.91-10.15-58.48,3.57-43.38,10.72-58.67c7.15-15.29,17.11-26.7,29.9-34.22,12.79-7.52,27.7-11.28,44.75-11.28,19.05,0,36.16,4.27,51.34,12.79,15.17,8.53,27.2,20.56,36.11,36.11,8.9,15.55,13.35,33.98,13.35,55.29s-4.45,39.37-13.35,54.91c-8.9,15.55-20.94,27.64-36.11,36.29-15.17,8.65-32.29,12.98-51.34,12.98ZM735.59,236.56c9.78,0,18.49-2.26,26.14-6.77,7.64-4.51,13.79-10.96,18.43-19.37,4.64-8.4,6.96-18.36,6.96-29.9s-2.32-21.81-6.96-30.09c-4.64-8.27-10.78-14.67-18.43-19.18-7.65-4.51-16.36-6.77-26.14-6.77s-18.56,2.26-26.33,6.77c-7.77,4.51-13.92,10.91-18.43,19.18-4.51,8.27-6.77,18.3-6.77,30.09s2.26,21.5,6.77,29.9c4.51,8.4,10.65,14.86,18.43,19.37,7.77,4.51,16.55,6.77,26.33,6.77Z"/>
            <path class="cls-18" d="M934.92,284.7c-17.3,0-33.91-2.07-49.83-6.21-14.01-3.64-25.45-8.1-34.31-13.39-2-1.2-2.8-3.7-1.81-5.82l15.78-33.99c1.1-2.37,3.99-3.34,6.27-2.07,8.34,4.66,17.92,8.54,28.74,11.64,12.66,3.64,25.13,5.45,37.42,5.45,13.54,0,23.13-1.63,28.77-4.89,5.64-3.26,8.46-7.77,8.46-13.54,0-4.76-2.2-8.33-6.58-10.72-4.39-2.38-10.22-4.2-17.49-5.45-7.27-1.25-15.23-2.5-23.88-3.76-8.65-1.25-17.36-2.94-26.14-5.08-8.78-2.13-16.8-5.32-24.07-9.59-7.28-4.26-13.1-10.03-17.49-17.3-4.39-7.27-6.58-16.67-6.58-28.21,0-12.79,3.7-24.07,11.09-33.85,7.39-9.78,18.11-17.49,32.16-23.13,14.04-5.64,30.84-8.46,50.4-8.46,13.79,0,27.83,1.5,42.12,4.51,12.46,2.62,23.1,6.29,31.94,11.01,2.14,1.14,3.04,3.74,2.01,5.94l-15.72,33.55c-1.11,2.36-3.96,3.28-6.26,2.05-8.4-4.5-16.84-7.66-25.33-9.49-9.91-2.13-19.5-3.2-28.77-3.2-13.04,0-22.57,1.76-28.58,5.27-6.02,3.51-9.03,8.03-9.03,13.54,0,5.02,2.19,8.78,6.58,11.28,4.38,2.51,10.21,4.51,17.49,6.02,7.27,1.5,15.23,2.82,23.88,3.95,8.65,1.13,17.36,2.82,26.14,5.08,8.77,2.26,16.74,5.45,23.88,9.59,7.15,4.14,12.98,9.78,17.49,16.92s6.77,16.49,6.77,28.02c0,12.54-3.76,23.64-11.28,33.29-7.52,9.65-18.37,17.24-32.53,22.75-14.17,5.51-31.4,8.27-51.71,8.27Z"/>
          </g>
          <g>
            <path class="cls-2" d="M313.83,174.03v18.53c0,29.08-12.41,43.62-37.23,43.62-9.28,0-17.93-2.44-25.95-7.33-6.79-4.14-11.31-7.94-17.56-15.4-1.81-2.15-5.13-2.12-6.93.03l-27.92,33.5c-1.4,1.69-1.4,4.15.02,5.83,9.15,10.85,18.57,17.33,32.27,23.43,14.91,6.64,31.27,9.96,49.08,9.96,31.09,0,54.66-8.02,70.7-24.07,16.05-16.04,24.07-40.36,24.07-72.96v-57.27c-19.11,18.95-39.33,35.44-60.55,42.13ZM369.86,18.42h-156.73c-3.69,0-5.83,4.17-3.69,7.17l28.52,39.83c.85,1.19,2.22,1.9,3.68,1.9h67.67c2.5,0,4.52,2.02,4.52,4.52v83.01c20.73-8.67,41.93-29.03,60.55-48.75V22.95c0-2.5-2.02-4.53-4.52-4.53Z"/>
            <path class="cls-12" d="M626.15,277.16V23.16c0-2.5,2.03-4.53,4.53-4.53h49.61c2.5,0,4.53,2.03,4.53,4.53v97.05c0,.09,0,.19,0,.28l-3.74,59.47c0,.12-.01.25,0,.37l1.13,59.99v36.84c0,2.5-2.03,4.53-4.53,4.53h-46.98c-2.5,0-4.53-2.03-4.53-4.53ZM745.75,284.7c-17.81,0-33.1-3.76-45.88-11.28-12.79-7.52-22.57-18.99-29.33-34.41s-10.15-34.91-10.15-58.48,3.57-43.38,10.72-58.67c7.15-15.29,17.11-26.7,29.9-34.22,12.79-7.52,27.7-11.28,44.75-11.28,19.05,0,36.16,4.27,51.34,12.79,15.17,8.53,27.2,20.56,36.11,36.11,8.9,15.55,13.35,33.98,13.35,55.29s-4.45,39.37-13.35,54.91c-8.9,15.55-20.94,27.64-36.11,36.29-15.17,8.65-32.29,12.98-51.34,12.98ZM735.59,236.56c9.78,0,18.49-2.26,26.14-6.77,7.64-4.51,13.79-10.96,18.43-19.37,4.64-8.4,6.96-18.36,6.96-29.9s-2.32-21.81-6.96-30.09c-4.64-8.27-10.78-14.67-18.43-19.18-7.65-4.51-16.36-6.77-26.14-6.77s-18.56,2.26-26.33,6.77c-7.77,4.51-13.92,10.91-18.43,19.18-4.51,8.27-6.77,18.3-6.77,30.09s2.26,21.5,6.77,29.9c4.51,8.4,10.65,14.86,18.43,19.37,7.77,4.51,16.55,6.77,26.33,6.77Z"/>
            <path class="cls-11" d="M934.92,284.7c-17.3,0-33.91-2.07-49.83-6.21-14.01-3.64-25.45-8.1-34.31-13.39-2-1.2-2.8-3.7-1.81-5.82l15.78-33.99c1.1-2.37,3.99-3.34,6.27-2.07,8.34,4.66,17.92,8.54,28.74,11.64,12.66,3.64,25.13,5.45,37.42,5.45,13.54,0,23.13-1.63,28.77-4.89,5.64-3.26,8.46-7.77,8.46-13.54,0-4.76-2.2-8.33-6.58-10.72-4.39-2.38-10.22-4.2-17.49-5.45-7.27-1.25-15.23-2.5-23.88-3.76-8.65-1.25-17.36-2.94-26.14-5.08-8.78-2.13-16.8-5.32-24.07-9.59-7.28-4.26-13.1-10.03-17.49-17.3-4.39-7.27-6.58-16.67-6.58-28.21,0-12.79,3.7-24.07,11.09-33.85,7.39-9.78,18.11-17.49,32.16-23.13,14.04-5.64,30.84-8.46,50.4-8.46,13.79,0,27.83,1.5,42.12,4.51,12.46,2.62,23.1,6.29,31.94,11.01,2.14,1.14,3.04,3.74,2.01,5.94l-15.72,33.55c-1.11,2.36-3.96,3.28-6.26,2.05-8.4-4.5-16.84-7.66-25.33-9.49-9.91-2.13-19.5-3.2-28.77-3.2-13.04,0-22.57,1.76-28.58,5.27-6.02,3.51-9.03,8.03-9.03,13.54,0,5.02,2.19,8.78,6.58,11.28,4.38,2.51,10.21,4.51,17.49,6.02,7.27,1.5,15.23,2.82,23.88,3.95,8.65,1.13,17.36,2.82,26.14,5.08,8.77,2.26,16.74,5.45,23.88,9.59,7.15,4.14,12.98,9.78,17.49,16.92s6.77,16.49,6.77,28.02c0,12.54-3.76,23.64-11.28,33.29-7.52,9.65-18.37,17.24-32.53,22.75-14.17,5.51-31.4,8.27-51.71,8.27Z"/>
          </g>
        </g>
      </g>
    </g>
    <g>
      <g>
        <g>
          <path class="cls-20" d="M139.46,134.23c17.83-11.45,35.62-22.96,53.53-34.28,2.75-1.74,3.08-2.88,1.35-5.74-12.99-21.44-30.05-37.89-54.74-44.96-19.97-5.72-39.44-3.92-58.27,4.79-3.62,1.67-7.19,3.5-10.59,5.58-2.27,1.39-3.27.71-4.5-1.28-3.9-6.3-7.88-12.55-12.02-18.69-1.46-2.16-1.03-3.15,1.1-4.39,27.26-15.87,56.29-20.8,87.06-13.66,30.44,7.07,54.23,24.03,71.52,49.98,29.78,44.7,23.84,106.64-13.69,145.02-5.6,5.73-11.8,10.69-18.19,15.48-2.11,1.58-3.28,1.69-4.78-.81-3.74-6.22-7.65-12.35-11.77-18.32-1.73-2.51-1.16-3.59,1.18-5.14,14.91-9.87,27.17-22.13,34.51-38.78,5.36-12.16,5.41-12.13-6.83-16.85-7.45-2.87-14.91-5.71-22.3-8.72-1.96-.8-2.75-.71-3.36,1.53-3.37,12.54-10.23,22.82-20.59,30.67-18.43,13.97-43.06,17.58-63.29-1.74-2.47-2.35-1.89-3.47.77-5.16,18.02-11.42,35.95-23,53.9-34.53Z"/>
          <path class="cls-13" d="M143,92.59c-4.29,3.39-73.55,47.69-76.68,49.07-4.82-19.73,4.03-39.69,22.72-51.26,17.89-11.07,38.95-10.31,53.96,2.19Z"/>
          <path class="cls-22" d="M25.65,188.48c-14.8-26.35-18.28-54.01-9.83-83.04,6-20.61,17.81-37.44,34.15-51.18,1.08-.91,2.4-3.12,4.26-.47,1.41,2,1.13,3-.8,4.61-34.05,28.47-46.15,73.69-29.66,114.08,20.12,49.3,72.91,72.83,122.14,57.54,4.77-1.48,9.44-3.43,13.89-5.68,2.52-1.28,3.67-.89,4.8,1.42,1.4,2.88-1.4,2.96-2.6,3.53-22.24,10.49-45.42,13.59-69.48,7.99-27.8-6.47-49.3-22.03-64.95-45.81-.65-.99-1.28-1.99-1.92-2.98Z"/>
        </g>
        <path class="cls-26" d="M294.2,171.2c-4.98,0-9.87-.71-14.59-2.13-26.13-7.83-45.89-31.83-60.41-73.4l5.66-1.98c13.84,39.62,32.31,62.39,56.46,69.63,6.52,1.96,13.4,2.38,20.44,1.27,26.59-4.19,54.02-30.04,77.33-54.76,6.24-6.61,12.46-13.45,18.48-20.06,28.42-31.23,55.28-60.75,78.71-60.75.15,0,.31,0,.46,0,8.49.14,16.16,4.17,22.79,11.96,6.01,7.07,8.78,17.77,8.44,32.73l-6-.13c.29-13.23-2.07-22.89-7.01-28.71-5.54-6.51-11.54-9.74-18.32-9.85-.12,0-.25,0-.37,0-20.76,0-46.75,28.56-74.26,58.79-6.03,6.63-12.27,13.49-18.55,20.14-25.22,26.74-52.46,52.1-80.76,56.57-2.86.45-5.7.68-8.5.68Z"/>
      </g>
      <g>
        <g>
          <path class="cls-15" d="M139.46,134.23c17.83-11.45,35.62-22.96,53.53-34.28,2.75-1.74,3.08-2.88,1.35-5.74-12.99-21.44-30.05-37.89-54.74-44.96-19.97-5.72-39.44-3.92-58.27,4.79-3.62,1.67-7.19,3.5-10.59,5.58-2.27,1.39-3.27.71-4.5-1.28-3.9-6.3-7.88-12.55-12.02-18.69-1.46-2.16-1.03-3.15,1.1-4.39,27.26-15.87,56.29-20.8,87.06-13.66,30.44,7.07,54.23,24.03,71.52,49.98,29.78,44.7,23.84,106.64-13.69,145.02-5.6,5.73-11.8,10.69-18.19,15.48-2.11,1.58-3.28,1.69-4.78-.81-3.74-6.22-7.65-12.35-11.77-18.32-1.73-2.51-1.16-3.59,1.18-5.14,14.91-9.87,27.17-22.13,34.51-38.78,5.36-12.16,5.41-12.13-6.83-16.85-7.45-2.87-14.91-5.71-22.3-8.72-1.96-.8-2.75-.71-3.36,1.53-3.37,12.54-10.23,22.82-20.59,30.67-18.43,13.97-43.06,17.58-63.29-1.74-2.47-2.35-1.89-3.47.77-5.16,18.02-11.42,35.95-23,53.9-34.53Z"/>
          <path class="cls-27" d="M143,92.59c-4.29,3.39-73.55,47.69-76.68,49.07-4.82-19.73,4.03-39.69,22.72-51.26,17.89-11.07,38.95-10.31,53.96,2.19Z"/>
          <path class="cls-14" d="M25.65,188.48c-14.8-26.35-18.28-54.01-9.83-83.04,6-20.61,17.81-37.44,34.15-51.18,1.08-.91,2.4-3.12,4.26-.47,1.41,2,1.13,3-.8,4.61-34.05,28.47-46.15,73.69-29.66,114.08,20.12,49.3,72.91,72.83,122.14,57.54,4.77-1.48,9.44-3.43,13.89-5.68,2.52-1.28,3.67-.89,4.8,1.42,1.4,2.88-1.4,2.96-2.6,3.53-22.24,10.49-45.42,13.59-69.48,7.99-27.8-6.47-49.3-22.03-64.95-45.81-.65-.99-1.28-1.99-1.92-2.98Z"/>
        </g>
        <path class="cls-17" d="M294.2,171.2c-4.98,0-9.87-.71-14.59-2.13-26.13-7.83-45.89-31.83-60.41-73.4l5.66-1.98c13.84,39.62,32.31,62.39,56.46,69.63,6.52,1.96,13.4,2.38,20.44,1.27,26.59-4.19,54.02-30.04,77.33-54.76,6.24-6.61,12.46-13.45,18.48-20.06,28.42-31.23,55.28-60.75,78.71-60.75.15,0,.31,0,.46,0,8.49.14,16.16,4.17,22.79,11.96,6.01,7.07,8.78,17.77,8.44,32.73l-6-.13c.29-13.23-2.07-22.89-7.01-28.71-5.54-6.51-11.54-9.74-18.32-9.85-.12,0-.25,0-.37,0-20.76,0-46.75,28.56-74.26,58.79-6.03,6.63-12.27,13.49-18.55,20.14-25.22,26.74-52.46,52.1-80.76,56.57-2.86.45-5.7.68-8.5.68Z"/>
      </g>
    </g>
    <g>
      <path class="cls-7" d="M959.34,64.75V19.28h15.33v45.47h-15.33Z"/>
      <path class="cls-7" d="M991.95,64.75V31.17h-13.32v-11.89h41.96v11.89h-13.32v33.58h-15.33Z"/>
    </g>
  </g>
  <g>
    <path class="cls-7" d="M120.32,326.66h-3.86v20.98h-3.5v-20.98h-3.86v-2.94h3.86v-1.33c0-5.05,2.88-7.58,8.65-7.58,3.14,0,6.38.56,9.72,1.69v2.83c-3.17-1.05-6.34-1.58-9.53-1.58-1.94,0-3.31.39-4.1,1.16-.8.77-1.2,1.93-1.2,3.48v1.33h3.83v2.94Z"/>
    <path class="cls-7" d="M156.86,337.11c0,2.92-.87,5.34-2.61,7.25s-4.15,2.87-7.21,2.87c-3.34,0-5.98-1.12-7.93-3.37-1.95-2.25-2.93-5.27-2.93-9.07,0-.91.06-1.94.18-3.09h3.5c-.1.88-.15,1.88-.15,2.98,0,2.92.64,5.23,1.91,6.92,1.28,1.69,3.08,2.54,5.41,2.54,2.11,0,3.72-.64,4.82-1.93s1.66-3.04,1.66-5.24c0-.39-.01-.7-.04-.92-1.52.86-3.02,1.29-4.49,1.29-1.62,0-2.89-.47-3.81-1.4-.92-.93-1.38-2.25-1.38-3.94v-5.34h-10.23v-2.94h25.76v2.94h-12v5.3c0,1.52.71,2.28,2.13,2.28,1.5,0,3.66-.83,6.48-2.5.61,1.67.92,3.46.92,5.37Z"/>
    <path class="cls-7" d="M183.8,326.66h-3.86v20.98h-3.5v-20.98h-3.86v-2.94h3.86v-1.33c0-5.05,2.88-7.58,8.65-7.58,3.14,0,6.38.56,9.72,1.69v2.83c-3.17-1.05-6.34-1.58-9.53-1.58-1.94,0-3.31.39-4.1,1.16-.8.77-1.2,1.93-1.2,3.48v1.33h3.83v2.94Z"/>
    <path class="cls-7" d="M226.53,347.63h-3.42c-.52-2.26-.77-4.44-.77-6.55,0-2.36.31-4.6.92-6.74-2.18-.59-4.17-1.5-5.96-2.72-1.79-1.23-3.08-2.69-3.86-4.38-2.09,1.6-3.13,3.41-3.13,5.45s1.14,2.91,3.42,2.91c1.67,0,3.32-.37,4.97-1.1.44,1.15.66,2.42.66,3.79,0,2.7-.8,4.93-2.41,6.68-1.61,1.75-3.86,2.63-6.75,2.63-3.24,0-5.8-1.15-7.69-3.44-1.89-2.29-2.83-5.31-2.83-9.04,0-.76.01-1.34.04-1.73h3.5c-.02.34-.04.85-.04,1.51,0,2.92.61,5.25,1.84,6.99,1.23,1.74,2.96,2.61,5.19,2.61,1.91,0,3.37-.55,4.38-1.66,1.01-1.1,1.51-2.61,1.51-4.53v-.22c-1.08.34-2.18.52-3.31.52-1.84,0-3.31-.52-4.42-1.55-1.1-1.03-1.66-2.43-1.66-4.2,0-2.4.93-4.48,2.8-6.22h-12.44v-2.94h32.65v2.94h-12.84c1.77,2.72,5.19,4.61,10.27,5.67-.91,2.72-1.36,5.63-1.36,8.72,0,1.96.26,4.16.77,6.59Z"/>
    <path class="cls-7" d="M262.05,337.81c0,2.6-.83,4.88-2.48,6.85-1.66,1.96-3.86,2.94-6.61,2.94-1.74,0-3.2-.53-4.38-1.58s-1.77-2.49-1.77-4.31v-15.05h-3.86v-2.94h15.27c.1-.42.15-.96.15-1.62,0-1.62-.74-2.43-2.21-2.43-.61,0-1.62.14-3.02.42-1.4.28-2.53.42-3.39.42-1.55,0-2.81-.26-3.79-.77v-2.76c1.03.39,2.21.59,3.53.59.74,0,1.86-.15,3.37-.46,1.51-.31,2.69-.46,3.55-.46,1.74,0,3.04.47,3.9,1.4.86.93,1.29,2.15,1.29,3.64,0,.56-.06,1.24-.18,2.02h3.2v2.94h-14.32v15.05c0,.91.24,1.6.74,2.08.49.48,1.13.72,1.91.72,1.64,0,2.98-.68,4.01-2.04,1.03-1.36,1.55-2.91,1.55-4.66,0-2.45-1.32-3.68-3.97-3.68-.54,0-1.04.05-1.51.15v-3.13c.59-.1,1.24-.15,1.95-.15,2.23,0,3.97.62,5.21,1.86,1.24,1.24,1.86,2.89,1.86,4.95Z"/>
    <path class="cls-7" d="M289.1,326.66h-3.86v20.98h-3.5v-18.22c0-.96-.16-1.66-.48-2.1-.32-.44-.91-.66-1.77-.66h-1.62v-2.94h1.91c1.03,0,1.82.5,2.36,1.51-.22-1.28-.33-2.48-.33-3.61v-.96h3.42v3.05h3.86v2.94Z"/>
    <path class="cls-7" d="M326.97,347.63h-3.53v-11.08c0-.91-.2-1.7-.59-2.37-.39-.67-1.07-1.01-2.02-1.01-1.89,0-2.83,1.39-2.83,4.16v.7h-3.57v-.85c0-2.65-1.02-3.98-3.06-3.98-.96,0-1.71.33-2.26.99-.55.66-.83,1.55-.83,2.65,0,1.28.35,2.24,1.05,2.89.7.65,1.6.98,2.71.98.71,0,1.47-.07,2.28-.22v3.02c-.79.17-1.66.26-2.61.26-2.09,0-3.76-.62-5.02-1.86-1.26-1.24-1.9-2.93-1.9-5.06,0-1.91.56-3.5,1.67-4.77,1.12-1.26,2.66-1.9,4.62-1.9,1.37,0,2.51.32,3.4.96.9.64,1.45,1.47,1.67,2.5.25-1.05.74-1.91,1.49-2.56.75-.65,1.67-.97,2.78-.97,1.35,0,2.36.49,3.02,1.47v-4.93h-21.09v-2.94h28.49v2.94h-3.86v20.98Z"/>
    <path class="cls-7" d="M373.97,342.19h-3.46v-15.53h-3.13v-2.94h21.05v2.94h-14.46v10.71c1.18-1.35,2.51-2.63,3.99-3.85,1.48-1.21,2.67-2.03,3.55-2.45h3.46v16.56h-3.46v-12.84c-1.18.86-2.48,1.99-3.92,3.39-1.44,1.4-2.64,2.74-3.62,4.01Z"/>
    <path class="cls-7" d="M438.71,338.58c0,1.89-.55,3.4-1.66,4.53-1.1,1.13-2.55,1.69-4.34,1.69-.49,0-.82-.01-.99-.04v-3.17h.37c2.13,0,3.2-1.01,3.2-3.02,0-2.16-1.5-3.24-4.49-3.24-.69,0-1.31.05-1.88.15v12.15h-3.53c-1.69-1.45-3.66-2.65-5.89-3.61-2.23-.96-4.44-1.44-6.62-1.44-1.2,0-2.14.31-2.82.92s-1.01,1.48-1.01,2.61v.55h-3.46c-.07-.44-.11-.85-.11-1.21,0-1.32.36-2.47,1.07-3.44.71-.97,1.72-1.66,3.02-2.08.44-.64.66-1.41.66-2.32,0-1.67-1.45-2.5-4.34-2.5h-1.58v-3.05h1.21c2.7,0,4.05-1.12,4.05-3.35,0-.71-.18-1.4-.55-2.06h-7.32v-2.94h40.23v2.94h-12.99v5.85c.88-.1,1.53-.15,1.95-.15,2.43,0,4.34.55,5.74,1.64,1.4,1.09,2.1,2.62,2.1,4.58ZM413.72,337.66c0,.61-.12,1.25-.37,1.91,2.16.1,4.33.55,6.51,1.36,2.18.81,4.02,1.78,5.52,2.91v-7.8c-.79.15-1.52.22-2.21.22-1.96,0-3.51-.5-4.64-1.51-1.13-1.01-1.69-2.37-1.69-4.08v-4.01h-4.27c.34.69.52,1.42.52,2.21,0,2.41-1.23,3.9-3.68,4.49,2.87.49,4.31,1.93,4.31,4.31ZM423.25,333.24c.56,0,1.28-.06,2.13-.18v-6.4h-5.04v3.97c0,1.74.97,2.61,2.91,2.61Z"/>
    <path class="cls-7" d="M481.22,326.66h-26.06v-2.94h26.06v2.94ZM478.42,336.15c0,2.85-.87,5.25-2.59,7.21-1.73,1.96-4.19,2.94-7.38,2.94s-5.91-1.14-7.78-3.42c-1.88-2.28-2.82-5.31-2.82-9.09,0-1.13.07-2.22.22-3.28h3.39c-.12.88-.18,1.98-.18,3.28,0,2.75.61,5.01,1.84,6.77,1.23,1.77,3,2.65,5.34,2.65,2.08,0,3.68-.66,4.78-1.97,1.1-1.31,1.66-3.01,1.66-5.1,0-1.28-.23-2.32-.7-3.15-.47-.82-1.19-1.23-2.17-1.23-.81,0-1.44.29-1.88.86-.44.58-.66,1.33-.66,2.26s.12,1.85.37,2.76h-3.28c-.37-.93-.55-1.91-.55-2.94,0-1.67.52-3.07,1.56-4.2,1.04-1.13,2.5-1.69,4.36-1.69s3.5.72,4.69,2.15c1.19,1.44,1.79,3.16,1.79,5.17Z"/>
    <path class="cls-7" d="M505.7,326.66h-3.86v20.98h-3.5v-18.22c0-.96-.16-1.66-.48-2.1-.32-.44-.91-.66-1.77-.66h-1.62v-2.94h1.91c1.03,0,1.82.5,2.36,1.51-.22-1.28-.33-2.48-.33-3.61v-.96h3.42v3.05h3.86v2.94Z"/>
    <path class="cls-7" d="M541.51,326.66h-3.86v20.98h-3.5l-12.55-5.96v-3.68l6.29-4.53-6.22-4.2v-2.61h-2.72v-2.94h22.56v2.94ZM526.91,347.62c.43.43.64.95.64,1.56s-.21,1.13-.64,1.55c-.43.42-.95.62-1.56.62s-1.16-.2-1.56-.61c-.4-.41-.61-.93-.61-1.56s.21-1.14.63-1.56c.42-.43.93-.64,1.55-.64s1.13.21,1.56.64ZM530.98,331.77v3.39l-5.89,4.38,9.05,4.49v-17.37h-10.3l7.14,5.12Z"/>
    <path class="cls-7" d="M589.17,345.54c0-1.37.37-2.53,1.1-3.48.74-.94,1.77-1.56,3.09-1.86v-5.12c-2.38-.1-4-1.15-4.86-3.17-.34.91-.93,1.67-1.77,2.3s-1.88.94-3.13.94c-1.1,0-2.17-.26-3.2-.77v-3.02c1.08.44,2.06.66,2.94.66,1.33,0,2.24-.4,2.74-1.21.5-.81.75-2.13.75-3.98v-.18h-8.83v-2.94h32.65v2.94h-3.83v20.98h-3.53c-.86-1.1-2.02-2.14-3.48-3.11-1.46-.97-2.91-1.45-4.36-1.45-.91,0-1.59.25-2.06.75-.47.5-.7,1.17-.7,2.01,0,.47.01.81.04,1.03h-3.46c-.07-.52-.11-.96-.11-1.33ZM593.62,332.32c1.77,0,2.65-1.07,2.65-3.2,0-.66-.1-1.48-.29-2.47h-5.67v.18c-.02,1.72.24,3.06.79,4.03.55.97,1.39,1.45,2.52,1.45ZM599.69,329.42c0,2.38-.93,4.05-2.8,5v5.82c2.53.47,4.66,1.66,6.4,3.57v-17.15h-3.9c.2,1.08.29,2,.29,2.76Z"/>
    <path class="cls-7" d="M635.14,326.66h-3.86v20.98h-3.5v-18.22c0-.96-.16-1.66-.48-2.1-.32-.44-.91-.66-1.77-.66h-1.62v-2.94h1.91c1.03,0,1.82.5,2.36,1.51-.22-1.28-.33-2.48-.33-3.61v-.96h3.42v3.05h3.86v2.94Z"/>
    <path class="cls-7" d="M667.49,337.81c0,2.6-.83,4.88-2.48,6.85-1.66,1.96-3.86,2.94-6.61,2.94-1.74,0-3.2-.53-4.38-1.58s-1.77-2.49-1.77-4.31v-15.05h-3.86v-2.94h15.27c.1-.42.15-.96.15-1.62,0-1.62-.74-2.43-2.21-2.43-.61,0-1.62.14-3.02.42s-2.53.42-3.39.42c-1.54,0-2.81-.26-3.79-.77v-2.76c1.03.39,2.21.59,3.53.59.74,0,1.86-.15,3.37-.46,1.51-.31,2.69-.46,3.55-.46,1.74,0,3.04.47,3.9,1.4.86.93,1.29,2.15,1.29,3.64,0,.56-.06,1.24-.18,2.02h3.2v2.94h-14.32v15.05c0,.91.25,1.6.74,2.08.49.48,1.13.72,1.91.72,1.64,0,2.98-.68,4.01-2.04,1.03-1.36,1.55-2.91,1.55-4.66,0-2.45-1.33-3.68-3.97-3.68-.54,0-1.04.05-1.51.15v-3.13c.59-.1,1.24-.15,1.95-.15,2.23,0,3.97.62,5.21,1.86,1.24,1.24,1.86,2.89,1.86,4.95Z"/>
    <path class="cls-7" d="M655.45,318.96l5.52-5.74h3.39v.15l-5.41,5.74h-3.5v-.15Z"/>
    <path class="cls-7" d="M733.7,337.51c0,2.21-.6,3.92-1.8,5.13-1.2,1.21-2.76,1.82-4.67,1.82-.34,0-.59-.01-.74-.04v-3.24h.44c2.21,0,3.31-1.23,3.31-3.68,0-1.57-.6-2.85-1.79-3.83-1.19-.98-2.77-1.51-4.73-1.58v15.53h-3.46l-11.41-8.46v-3.72c4.12-3.63,7.92-5.75,11.41-6.37v-2.43h-13.65v-2.94h29.26v2.94h-12.15v2.36c2.8.05,5.16.85,7.08,2.41,1.93,1.56,2.89,3.59,2.89,6.09ZM720.26,343.73v-11.48c-2.58.69-5.36,2.38-8.35,5.08l8.35,6.4Z"/>
    <path class="cls-7" d="M761.67,326.66h-12.55v-2.94h12.55v2.94ZM756.37,347.63h-3.75c1.4-2.26,2.1-4.26,2.1-6,0-1.01-.39-2.6-1.18-4.78-.79-2.18-1.18-3.79-1.18-4.82,0-2.16.85-3.95,2.54-5.37h3.72c-.76.56-1.41,1.31-1.93,2.25-.53.93-.79,1.95-.79,3.05,0,1.03.39,2.65,1.18,4.86.79,2.21,1.18,3.82,1.18,4.82,0,2.01-.63,4.01-1.88,6Z"/>
    <path class="cls-7" d="M786.11,326.66h-3.86v20.98h-3.5v-18.22c0-.96-.16-1.66-.48-2.1-.32-.44-.91-.66-1.77-.66h-1.62v-2.94h1.91c1.03,0,1.82.5,2.36,1.51-.22-1.28-.33-2.48-.33-3.61v-.96h3.42v3.05h3.86v2.94Z"/>
    <path class="cls-7" d="M810.58,326.66h-3.86v20.98h-3.5v-20.98h-3.86v-2.94h3.86v-1.33c0-5.05,2.88-7.58,8.65-7.58,3.14,0,6.38.56,9.72,1.69v2.83c-3.17-1.05-6.34-1.58-9.53-1.58-1.94,0-3.31.39-4.1,1.16-.8.77-1.2,1.93-1.2,3.48v1.33h3.83v2.94Z"/>
    <path class="cls-7" d="M844.77,326.66h-3.83v20.98h-3.46l-11.41-8.46v-3.72c3.58-3.17,7.38-5.27,11.41-6.33v-2.47h-13.65v-2.94h20.94v2.94ZM829.55,345.08c.43.43.64.95.64,1.56s-.21,1.13-.64,1.55c-.43.42-.95.63-1.56.63s-1.13-.21-1.55-.63-.63-.93-.63-1.55.21-1.13.63-1.56.93-.64,1.55-.64,1.13.21,1.56.64ZM837.49,343.7v-11.26c-2.97,1.08-5.74,2.7-8.32,4.86l8.32,6.4Z"/>
    <path class="cls-7" d="M880.58,326.66h-3.86v20.98h-3.5l-12.55-5.96v-3.68l6.29-4.53-6.22-4.2v-2.61h-2.72v-2.94h22.56v2.94ZM865.99,347.62c.43.43.64.95.64,1.56s-.21,1.13-.64,1.55c-.43.42-.95.62-1.56.62s-1.16-.2-1.56-.61c-.4-.41-.61-.93-.61-1.56s.21-1.14.63-1.56c.42-.43.93-.64,1.55-.64s1.13.21,1.56.64ZM870.06,331.77v3.39l-5.89,4.38,9.05,4.49v-17.37h-10.3l7.14,5.12Z"/>
    <path class="cls-7" d="M905.02,326.66h-3.86v20.98h-3.5v-18.22c0-.96-.16-1.66-.48-2.1-.32-.44-.91-.66-1.77-.66h-1.62v-2.94h1.91c1.03,0,1.82.5,2.36,1.51-.22-1.28-.33-2.48-.33-3.61v-.96h3.42v3.05h3.86v2.94Z"/>
    <path class="cls-7" d="M939.21,326.66h-3.83v20.98h-3.46l-11.41-8.46v-3.72c3.58-3.17,7.38-5.27,11.41-6.33v-2.47h-13.65v-2.94h20.94v2.94ZM924,345.08c.43.43.64.95.64,1.56s-.21,1.13-.64,1.55c-.43.42-.95.63-1.56.63s-1.13-.21-1.55-.63-.63-.93-.63-1.55.21-1.13.63-1.56.93-.64,1.55-.64,1.13.21,1.56.64ZM931.93,343.7v-11.26c-2.97,1.08-5.74,2.7-8.32,4.86l8.32,6.4Z"/>
  </g>
</svg>